<svg xmlns="http://www.w3.org/2000/svg" width="1250" height="1250" viewBox="0 0 1250 1250" version="1.1">
	<path d="M 27 624.464 L 27 1248.928 17.250 1249.254 L 7.500 1249.581 17.750 1249.791 L 28 1250 28 625 C 28 281.250, 27.775 0, 27.500 0 C 27.225 0, 27 281.009, 27 624.464 M 629 322.624 C 546.395 329.930, 468.789 371.566, 416.348 436.713 C 387.585 472.445, 364.507 520.372, 354.838 564.455 C 350.412 584.631, 348.830 599.010, 348.284 624.022 C 347.716 650.004, 348.565 663.550, 352.072 684.500 C 365.706 765.952, 414.903 841.888, 483.803 887.831 C 524.637 915.060, 564.416 930.334, 613.572 937.659 C 630.700 940.211, 677.503 940.219, 694.500 937.672 C 773.867 925.781, 842.168 886.576, 892.537 824 C 909.687 802.695, 931.170 764.951, 940.349 740 C 965.001 672.987, 966.422 601.459, 944.416 535.261 C 910.303 432.642, 825.648 354.397, 721.789 329.488 C 700.567 324.399, 686.458 322.833, 659 322.518 C 644.975 322.358, 631.475 322.405, 629 322.624 M 632.091 354.008 C 609.468 355.904, 587.022 360.615, 565.500 367.985 C 539.803 376.785, 504.935 396.263, 482 414.630 C 471.085 423.372, 450.372 444.085, 441.630 455 C 424.253 476.699, 404.728 511.131, 395.494 536.360 C 373.570 596.259, 373.575 666.940, 395.507 726.640 C 404.650 751.527, 424.192 785.852, 441 806.549 C 485.138 860.897, 549.692 897.194, 619 906.632 C 636.250 908.981, 671.965 908.989, 689 906.648 C 738.822 899.800, 784.695 880.020, 825 848.006 C 836.998 838.476, 857.739 818.052, 866.641 807 C 898.641 767.274, 918.889 721.180, 926.690 670.305 C 928.841 656.281, 929.134 610.022, 927.162 596 C 918.931 537.482, 895.431 487.128, 855.571 442.602 C 820.244 403.139, 765.521 371.291, 713 359.628 C 689.116 354.324, 655.876 352.015, 632.091 354.008 M 641.500 425.023 C 585.553 429.710, 546.295 459.903, 536.888 505.478 C 535.434 512.525, 535.023 518.937, 535.013 534.774 L 535 555.047 552.250 554.774 L 569.500 554.500 570.051 533.500 C 570.647 510.798, 571.500 506.501, 577.564 495.661 C 584.083 484.006, 598.986 471.847, 613.691 466.184 C 653.913 450.694, 703.688 461.901, 723.508 490.909 C 726.173 494.809, 728.661 498, 729.038 498 C 729.415 498, 735.298 495.701, 742.112 492.891 C 748.925 490.081, 755.994 487.166, 757.820 486.413 L 761.140 485.043 757.991 479.135 C 756.259 475.886, 751.997 469.671, 748.520 465.326 C 726.536 437.848, 683.201 421.529, 641.500 425.023 M 493.462 574.247 C 493.200 574.936, 493.101 627.475, 493.243 691 L 493.500 806.500 652 806.500 L 810.500 806.500 810.500 690 L 810.500 573.500 652.220 573.247 C 526.122 573.045, 493.843 573.249, 493.462 574.247 M 528 690 L 528 772 652 772 L 776 772 776 690 L 776 608 652 608 L 528 608 528 690 M 635 690.524 L 635 724.047 652.250 723.774 L 669.500 723.500 669.763 690.250 L 670.027 657 652.513 657 L 635 657 635 690.524 M 1.762 1249.707 C 3.006 1249.946, 4.806 1249.937, 5.762 1249.687 C 6.718 1249.437, 5.700 1249.241, 3.500 1249.252 C 1.300 1249.263, 0.518 1249.468, 1.762 1249.707 " stroke="none" fill="black" fill-rule="evenodd"/>
</svg>