<svg xmlns="http://www.w3.org/2000/svg" width="1250" height="1250" viewBox="0 0 1250 1250" version="1.1">
	<path d="M 27 624.464 L 27 1248.928 17.250 1249.254 L 7.500 1249.581 17.750 1249.791 L 28 1250 28 625 C 28 281.250, 27.775 0, 27.500 0 C 27.225 0, 27 281.009, 27 624.464 M 519 461.669 C 499.190 479.887, 477.475 500.379, 454.325 522.702 L 431.149 545.049 429.621 551.774 C 425.106 571.644, 417.390 639.648, 408.409 738.722 L 406.757 756.945 423.629 786.865 L 440.500 816.785 452.500 817.434 C 489.746 819.448, 499.459 820.175, 501.138 821.074 C 502.851 821.991, 503 823.553, 503 840.601 C 503 851.265, 503.432 859.939, 504.018 861.034 C 506.271 865.243, 519.389 870.536, 538.789 875.065 C 543.348 876.129, 547.285 877, 547.539 877 C 547.792 877, 548 863.050, 548 846 L 548 815 557 815 L 566 815 566 850.486 L 566 885.972 569.811 888.494 C 573.723 891.083, 587.236 896.829, 599.311 901.038 C 610.329 904.880, 609.458 908.695, 609.760 855.269 L 610.020 809.255 615.260 808.580 C 618.142 808.208, 622.188 807.643, 624.250 807.324 L 628 806.744 628 857.698 L 628 908.651 630.260 910.775 C 633.490 913.809, 643.951 918.272, 647.582 918.164 C 653.175 917.999, 666.662 913.118, 669.911 910.084 L 673 907.198 673 857.099 C 673 800.144, 671.876 806.038, 682.333 808.138 L 688 809.276 688 853.704 C 688 895.089, 688.260 900.104, 690.543 902.825 C 690.693 903.003, 696.358 901.508, 703.132 899.501 C 717.899 895.128, 729.093 890.134, 731.349 886.912 C 732.807 884.831, 733 880.488, 733 849.777 L 733 815 743 815 L 753 815 753 846 C 753 875.615, 753.084 877, 754.870 877 C 757.315 877, 775.618 871.615, 784.365 868.322 C 788.140 866.900, 792.753 864.400, 794.615 862.765 L 798 859.793 798 840.018 L 798 820.243 814.750 819.554 C 823.962 819.175, 837.543 818.455, 844.929 817.955 C 858.172 817.058, 858.404 817.001, 861.666 813.839 C 865.778 809.854, 877.819 793.017, 890.031 774.178 L 899.314 759.857 896.119 730.178 C 891.308 685.498, 881.231 597.051, 878.449 575.079 C 876.441 559.224, 875.548 554.908, 873.590 551.579 C 867.635 541.458, 842.708 515.241, 801.594 475.858 L 776.687 452 653.094 452.006 L 529.500 452.012 519 461.669 M 459.421 690.198 C 446.196 698.794, 434.881 714.206, 431.865 727.734 C 431.126 731.049, 429.736 734.187, 428.596 735.116 C 427.091 736.342, 426.517 738.274, 426.221 743.116 L 425.830 749.500 435.165 763.566 C 440.299 771.302, 447.200 782.212, 450.500 787.810 L 456.500 797.989 461.101 797.995 C 467.144 798.002, 525.349 793.438, 544.500 791.455 C 572.300 788.577, 588.135 785.963, 590.709 783.826 C 591.514 783.158, 592 780.378, 592 776.436 L 592 770.117 586.205 765.657 C 578.598 759.804, 523.845 722.694, 493.391 702.750 C 478.557 693.036, 468.383 687, 466.842 687 C 465.467 687, 462.128 688.439, 459.421 690.198 M 808.500 703.638 C 776.164 724.942, 737.179 750.021, 723.104 758.571 L 712 765.316 712 776.658 L 712 788 714.750 788.007 C 719.066 788.019, 754.179 790.731, 793 794.052 C 843.705 798.390, 845 798.468, 845 797.203 C 845 796.601, 852.446 784.899, 861.547 771.198 L 878.093 746.287 874.965 738.394 C 870.813 727.918, 862.942 712.264, 858.274 705.200 C 851.262 694.589, 841.606 686.918, 835.500 687.105 C 834.400 687.139, 822.250 694.579, 808.500 703.638 M 1.762 1249.707 C 3.006 1249.946, 4.806 1249.937, 5.762 1249.687 C 6.718 1249.437, 5.700 1249.241, 3.500 1249.252 C 1.300 1249.263, 0.518 1249.468, 1.762 1249.707 " stroke="none" fill="black" fill-rule="evenodd"/>
</svg>