<svg xmlns="http://www.w3.org/2000/svg" width="1250" height="1250" viewBox="0 0 1250 1250" version="1.1">
	<path d="M 27 624.462 L 27 1248.925 17.750 1249.255 L 8.500 1249.585 18.250 1249.792 L 28 1250 28 625 C 28 281.250, 27.775 0, 27.500 0 C 27.225 0, 27 281.008, 27 624.462 M 626.500 323.140 C 542.562 330.398, 462.279 375.534, 410.363 444.654 C 393.248 467.440, 377.401 496.292, 367.179 523.275 C 342.146 589.353, 341.509 668.598, 365.473 735.532 C 371.099 751.245, 386.436 782.641, 395.501 797 C 437.240 863.118, 504.359 911.904, 579.782 930.945 C 634.191 944.681, 696.611 942.478, 748.490 924.991 C 839.530 894.303, 911.592 822.681, 943.307 731.361 C 965.545 667.330, 965.019 590.676, 941.910 527.875 C 920.457 469.573, 883.628 419.626, 835.100 383.019 C 813.511 366.733, 780.943 348.968, 755.494 339.596 C 716.455 325.219, 670.400 319.343, 626.500 323.140 M 629.169 354.034 C 502.231 366.284, 400.664 464.284, 381.248 593.251 C 379.082 607.638, 378.831 652.744, 380.837 667 C 389.798 730.663, 418.452 787.420, 463.631 831 C 538.684 903.395, 644.019 927.436, 741.341 894.384 C 767.948 885.348, 802.544 866.139, 826 847.378 C 837.937 837.831, 859.238 816.381, 868.787 804.293 C 901.469 762.919, 921.462 714.953, 927.485 663.465 C 929.411 647, 929.437 616.222, 927.538 599.994 C 921.739 550.415, 903.551 504.614, 873.933 465 C 846.485 428.290, 814.046 401.410, 772.500 380.949 C 745.767 367.784, 721.725 360.145, 693.568 355.871 C 678.503 353.584, 644.027 352.601, 629.169 354.034 M 516 522.469 L 516 535.938 619.250 536.223 L 722.500 536.508 731.463 539.311 C 753.683 546.261, 770.764 560.303, 780.847 579.911 C 788.238 594.282, 791 606.141, 791 623.500 C 791 640.900, 788.240 652.715, 780.792 667.195 C 769.017 690.089, 746.798 705.936, 720.823 709.968 C 715.818 710.744, 695.906 711.009, 657.914 710.802 L 602.328 710.500 623.617 695.500 L 644.905 680.500 612.337 680.236 L 579.768 679.972 545.388 702.236 C 526.480 714.481, 511.031 724.725, 511.058 725 C 511.086 725.275, 526.659 735.519, 545.666 747.764 L 580.225 770.027 612.718 769.764 L 645.211 769.500 637.355 763.919 C 633.035 760.849, 623.200 753.874, 615.500 748.419 L 601.500 738.500 664.500 737.967 L 727.500 737.434 737.500 734.721 C 748.032 731.863, 762.836 725.247, 770.774 719.849 C 777.537 715.251, 790.344 702.615, 796.093 694.868 C 810.401 675.588, 817.979 651.005, 817.994 623.822 C 818.009 597.359, 811.942 576.118, 798.679 556.195 C 785.261 536.039, 764.735 520.491, 743 514.017 C 726.228 509.022, 725.680 509, 617.369 509 L 516 509 516 522.469 M 1.762 1249.707 C 3.006 1249.946, 4.806 1249.937, 5.762 1249.687 C 6.718 1249.437, 5.700 1249.241, 3.500 1249.252 C 1.300 1249.263, 0.518 1249.468, 1.762 1249.707 " stroke="none" fill="black" fill-rule="evenodd"/>
</svg>