<svg xmlns="http://www.w3.org/2000/svg" width="1250" height="1250" viewBox="0 0 1250 1250" version="1.1">
	<path d="M 27 624.464 L 27 1248.928 17.250 1249.254 L 7.500 1249.581 17.750 1249.791 L 28 1250 28 625 C 28 281.250, 27.775 0, 27.500 0 C 27.225 0, 27 281.009, 27 624.464 M 629 322.624 C 546.395 329.930, 468.789 371.566, 416.348 436.713 C 387.585 472.445, 364.507 520.372, 354.838 564.455 C 350.412 584.631, 348.830 599.010, 348.284 624.022 C 347.716 650.004, 348.565 663.550, 352.072 684.500 C 365.706 765.952, 414.903 841.888, 483.803 887.831 C 524.637 915.060, 564.416 930.334, 613.572 937.659 C 630.700 940.211, 677.503 940.219, 694.500 937.672 C 773.867 925.781, 842.168 886.576, 892.537 824 C 909.687 802.695, 931.170 764.951, 940.349 740 C 965.001 672.987, 966.422 601.459, 944.416 535.261 C 910.303 432.642, 825.648 354.397, 721.789 329.488 C 700.567 324.399, 686.458 322.833, 659 322.518 C 644.975 322.358, 631.475 322.405, 629 322.624 M 632.091 354.008 C 609.468 355.904, 587.022 360.615, 565.500 367.985 C 539.803 376.785, 504.935 396.263, 482 414.630 C 471.085 423.372, 450.372 444.085, 441.630 455 C 424.253 476.699, 404.728 511.131, 395.494 536.360 C 373.570 596.259, 373.575 666.940, 395.507 726.640 C 404.650 751.527, 424.192 785.852, 441 806.549 C 485.138 860.897, 549.692 897.194, 619 906.632 C 636.250 908.981, 671.965 908.989, 689 906.648 C 738.822 899.800, 784.695 880.020, 825 848.006 C 836.998 838.476, 857.739 818.052, 866.641 807 C 898.641 767.274, 918.889 721.180, 926.690 670.305 C 928.841 656.281, 929.134 610.022, 927.162 596 C 918.931 537.482, 895.431 487.128, 855.571 442.602 C 820.244 403.139, 765.521 371.291, 713 359.628 C 689.116 354.324, 655.876 352.015, 632.091 354.008 M 614 452.500 L 614 470 554 470 L 494 470 494 506.500 L 494 543 505.500 543 L 517 543 517 680.500 L 517 818 652.500 818 L 788 818 788 680.500 L 788 543 799.512 543 L 811.025 543 810.762 506.750 L 810.500 470.500 750.750 470.242 L 691 469.984 691 452.492 L 691 435 652.500 435 L 614 435 614 452.500 M 529 524 L 529 543 540.500 543 L 552 543 552 663 L 552 783 572.500 783 L 593 783 593 663 L 593 543 611 543 L 629 543 629 663 L 629 783 652.500 783 L 676 783 676 663 L 676 543 693.500 543 L 711 543 711 663 L 711 783 732 783 L 753 783 753 663 L 753 543 764.500 543 L 776 543 776 524 L 776 505 652.500 505 L 529 505 529 524 M 1.762 1249.707 C 3.006 1249.946, 4.806 1249.937, 5.762 1249.687 C 6.718 1249.437, 5.700 1249.241, 3.500 1249.252 C 1.300 1249.263, 0.518 1249.468, 1.762 1249.707 " stroke="none" fill="black" fill-rule="evenodd"/>
</svg>