<svg xmlns="http://www.w3.org/2000/svg" width="1250" height="1250" viewBox="0 0 1250 1250" version="1.1">
	<path d="M 27 624.462 L 27 1248.925 17.750 1249.255 L 8.500 1249.585 18.250 1249.792 L 28 1250 28 625 C 28 281.250, 27.775 0, 27.500 0 C 27.225 0, 27 281.008, 27 624.462 M 575.350 449.403 C 531.983 469.304, 493.853 486.656, 490.619 487.963 C 468.078 497.068, 447.005 520.922, 429.481 557.168 L 424.909 566.627 426.458 612.063 C 429.992 715.740, 432.429 774.797, 433.205 775.517 C 433.367 775.668, 452.063 786.233, 474.750 798.994 L 516 822.197 516 844.698 L 516 867.198 519.154 870.144 C 522.911 873.654, 534.926 879.470, 547.879 884.050 C 560.490 888.509, 560 889.321, 560 863.976 C 560 853.172, 560.267 844.067, 560.593 843.741 C 561.664 842.669, 573.254 847.443, 576.158 850.151 L 579 852.802 579 873.246 C 579 896.861, 578.211 894.922, 590.047 900.378 C 597.073 903.616, 617.217 911, 619.025 911 C 619.483 911, 620.564 910.293, 621.429 909.429 C 622.730 908.128, 623 905.030, 623 891.429 C 623 877.592, 623.233 875, 624.480 875 C 626.955 875, 634.306 878.158, 637.750 880.702 L 641 883.102 641 900 L 641 916.898 644.250 919.286 C 648.353 922.302, 657.143 926, 660.205 926 C 664.417 926, 677.422 921.940, 681.250 919.430 L 685 916.972 685 897.121 C 685 878.485, 685.128 877.107, 687.095 874.607 C 689.128 872.022, 694.159 868.980, 698.750 867.561 L 701 866.865 701 886.822 C 701 904.384, 701.210 907.023, 702.750 908.818 L 704.500 910.858 717 907.140 C 729.979 903.278, 740.162 899.069, 743.223 896.298 C 744.838 894.836, 745 892.340, 745 868.845 C 745 843.905, 745.068 843, 746.946 843 C 748.017 843, 752.371 841.200, 756.622 839 C 760.874 836.800, 764.715 835, 765.159 835 C 765.603 835, 766.086 846.210, 766.233 859.912 L 766.500 884.824 779.500 881.523 C 795.377 877.492, 803.092 874.635, 807.016 871.333 L 810 868.822 810 839.420 C 810 812.483, 810.147 809.929, 811.750 808.970 C 812.712 808.394, 821.256 804.394, 830.735 800.081 C 850.815 790.947, 867.800 781.759, 872.481 777.500 L 875.779 774.500 877.429 710 C 881.259 560.297, 881.142 568.655, 879.461 563.890 C 874.610 550.139, 850.600 511.498, 843.712 506.355 C 829.004 495.375, 762.900 462.717, 666.850 418.979 L 654.201 413.218 575.350 449.403 M 505.217 746.983 C 481.665 753.021, 451 762.363, 451 763.501 C 451 765.593, 511.341 794.151, 533.500 802.547 C 543.222 806.230, 543.941 806.348, 559.374 806.791 C 570.306 807.104, 575.132 806.915, 574.874 806.185 C 574.196 804.264, 518.581 743.999, 517.529 744.045 C 516.963 744.071, 511.423 745.392, 505.217 746.983 M 763.028 774.454 C 748.469 791.161, 736.394 805.318, 736.195 805.915 C 735.946 806.662, 740.334 807, 750.260 807 C 761.735 807, 765.793 806.619, 770.093 805.136 C 784.307 800.236, 860 765.206, 860 763.528 C 860 762.193, 794.402 743.846, 790.319 744.039 C 789.868 744.060, 777.588 757.747, 763.028 774.454 M 1.762 1249.707 C 3.006 1249.946, 4.806 1249.937, 5.762 1249.687 C 6.718 1249.437, 5.700 1249.241, 3.500 1249.252 C 1.300 1249.263, 0.518 1249.468, 1.762 1249.707 " stroke="none" fill="black" fill-rule="evenodd"/>
</svg>