<svg xmlns="http://www.w3.org/2000/svg" width="1250" height="1250" viewBox="0 0 1250 1250" version="1.1">
	<path d="M 27 624.464 L 27 1248.928 17.250 1249.254 L 7.500 1249.581 17.750 1249.791 L 28 1250 28 625 C 28 281.250, 27.775 0, 27.500 0 C 27.225 0, 27 281.009, 27 624.464 M 629 322.624 C 546.395 329.930, 468.789 371.566, 416.348 436.713 C 387.585 472.445, 364.507 520.372, 354.838 564.455 C 350.412 584.631, 348.830 599.010, 348.284 624.022 C 347.716 650.004, 348.565 663.550, 352.072 684.500 C 365.706 765.952, 414.903 841.888, 483.803 887.831 C 524.637 915.060, 564.416 930.334, 613.572 937.659 C 630.700 940.211, 677.503 940.219, 694.500 937.672 C 773.867 925.781, 842.168 886.576, 892.537 824 C 909.687 802.695, 931.170 764.951, 940.349 740 C 965.001 672.987, 966.422 601.459, 944.416 535.261 C 910.303 432.642, 825.648 354.397, 721.789 329.488 C 700.567 324.399, 686.458 322.833, 659 322.518 C 644.975 322.358, 631.475 322.405, 629 322.624 M 632.091 354.008 C 609.468 355.904, 587.022 360.615, 565.500 367.985 C 539.803 376.785, 504.935 396.263, 482 414.630 C 471.085 423.372, 450.372 444.085, 441.630 455 C 424.253 476.699, 404.728 511.131, 395.494 536.360 C 373.570 596.259, 373.575 666.940, 395.507 726.640 C 404.650 751.527, 424.192 785.852, 441 806.549 C 485.138 860.897, 549.692 897.194, 619 906.632 C 636.250 908.981, 671.965 908.989, 689 906.648 C 738.822 899.800, 784.695 880.020, 825 848.006 C 836.998 838.476, 857.739 818.052, 866.641 807 C 898.641 767.274, 918.889 721.180, 926.690 670.305 C 928.841 656.281, 929.134 610.022, 927.162 596 C 918.931 537.482, 895.431 487.128, 855.571 442.602 C 820.244 403.139, 765.521 371.291, 713 359.628 C 689.116 354.324, 655.876 352.015, 632.091 354.008 M 636.204 426.173 C 589.819 431.992, 552.836 460.699, 543.026 498.500 C 540.478 508.320, 538.781 527.796, 539.192 542.500 L 539.500 553.500 556.750 553.774 L 574 554.047 574.017 536.274 C 574.036 516.987, 575.169 509.141, 579.256 500 C 587.018 482.638, 605.703 468.413, 628.790 462.289 C 637.324 460.025, 640.498 459.710, 655 459.689 C 678.462 459.654, 692.282 463.264, 708.255 473.597 C 721.028 481.859, 728.661 491.187, 733.853 504.880 C 736.181 511.020, 736.394 513.042, 736.781 532.773 L 737.200 554.046 754.350 553.773 L 771.500 553.500 771.812 540 C 772.206 522.947, 770.649 507.473, 767.410 496.254 C 753.512 448.122, 697.924 418.431, 636.204 426.173 M 499 687.500 L 499 803 655.500 803 L 812 803 812 687.500 L 812 572 655.500 572 L 499 572 499 687.500 M 533 687.500 L 533 768 655.500 768 L 778 768 778 687.500 L 778 607 655.500 607 L 533 607 533 687.500 M 638.464 655.234 C 638.193 655.940, 638.090 670.913, 638.236 688.509 L 638.500 720.500 655.500 720.500 L 672.500 720.500 672.500 687.500 L 672.500 654.500 655.728 654.226 C 642.801 654.014, 638.843 654.246, 638.464 655.234 M 1.762 1249.707 C 3.006 1249.946, 4.806 1249.937, 5.762 1249.687 C 6.718 1249.437, 5.700 1249.241, 3.500 1249.252 C 1.300 1249.263, 0.518 1249.468, 1.762 1249.707 " stroke="none" fill="black" fill-rule="evenodd"/>
</svg>