<svg xmlns="http://www.w3.org/2000/svg" width="1250" height="1250" viewBox="0 0 1250 1250" version="1.1">
	<path d="M 27 624.464 L 27 1248.928 17.250 1249.254 L 7.500 1249.581 17.750 1249.791 L 28 1250 28 625 C 28 281.250, 27.775 0, 27.500 0 C 27.225 0, 27 281.009, 27 624.464 M 629 322.624 C 546.395 329.930, 468.789 371.566, 416.348 436.713 C 387.585 472.445, 364.507 520.372, 354.838 564.455 C 350.412 584.631, 348.830 599.010, 348.284 624.022 C 347.716 650.004, 348.565 663.550, 352.072 684.500 C 365.706 765.952, 414.903 841.888, 483.803 887.831 C 524.637 915.060, 564.416 930.334, 613.572 937.659 C 630.700 940.211, 677.503 940.219, 694.500 937.672 C 773.867 925.781, 842.168 886.576, 892.537 824 C 909.687 802.695, 931.170 764.951, 940.349 740 C 965.001 672.987, 966.422 601.459, 944.416 535.261 C 910.303 432.642, 825.648 354.397, 721.789 329.488 C 700.567 324.399, 686.458 322.833, 659 322.518 C 644.975 322.358, 631.475 322.405, 629 322.624 M 632.091 354.008 C 609.468 355.904, 587.022 360.615, 565.500 367.985 C 539.803 376.785, 504.935 396.263, 482 414.630 C 471.085 423.372, 450.372 444.085, 441.630 455 C 424.253 476.699, 404.728 511.131, 395.494 536.360 C 373.570 596.259, 373.575 666.940, 395.507 726.640 C 404.650 751.527, 424.192 785.852, 441 806.549 C 485.138 860.897, 549.692 897.194, 619 906.632 C 636.250 908.981, 671.965 908.989, 689 906.648 C 738.822 899.800, 784.695 880.020, 825 848.006 C 836.998 838.476, 857.739 818.052, 866.641 807 C 898.641 767.274, 918.889 721.180, 926.690 670.305 C 928.841 656.281, 929.134 610.022, 927.162 596 C 918.931 537.482, 895.431 487.128, 855.571 442.602 C 820.244 403.139, 765.521 371.291, 713 359.628 C 689.116 354.324, 655.876 352.015, 632.091 354.008 M 765.157 510.741 C 764.650 511.709, 760.278 526.563, 755.443 543.750 L 746.651 575 602.258 575 C 465.198 575, 457.893 575.089, 458.416 576.750 C 458.719 577.712, 463.434 596.969, 468.894 619.543 C 474.748 643.746, 480.230 664.080, 482.256 669.103 C 497.352 706.540, 529.280 732.887, 570.756 742.134 C 580.151 744.228, 583.087 744.321, 652.676 744.732 L 724.852 745.159 726.508 739.329 C 727.419 736.123, 740.853 688.950, 756.361 634.500 L 784.557 535.500 829.309 535.240 L 874.060 534.979 873.780 522.240 L 873.500 509.500 819.790 509.241 C 769.401 508.999, 766.023 509.091, 765.157 510.741 M 491 601.380 C 491 604.517, 504.002 654.470, 506.204 659.790 C 516.842 685.501, 539.854 706.103, 567.500 714.668 L 576.500 717.456 641.199 717.775 L 705.897 718.095 707.034 713.797 C 707.997 710.160, 737.081 607.883, 738.613 602.750 C 739.108 601.090, 732.759 601, 615.067 601 C 546.830 601, 491 601.171, 491 601.380 M 562.155 634.750 C 563.547 636.263, 576.741 650.917, 591.476 667.316 C 606.211 683.716, 618.583 696.766, 618.968 696.316 C 619.354 695.867, 632.344 681.459, 647.835 664.298 C 663.326 647.137, 676 632.850, 676 632.548 C 676 632.247, 649.816 632, 617.813 632 L 559.626 632 562.155 634.750 M 549.882 761.793 C 534.942 769.597, 531.239 789.037, 542.298 801.601 C 549.576 809.869, 558.913 812.621, 569.374 809.580 C 583.367 805.512, 591.255 790.315, 586.618 776.357 C 581.626 761.326, 564.087 754.372, 549.882 761.793 M 700.500 760.871 C 692.233 764.647, 685 775.906, 685 785 C 685 791.153, 688.105 798.201, 692.952 803.048 C 702.451 812.546, 716.105 813.529, 727.143 805.509 C 736.535 798.685, 740.116 784.069, 734.991 773.481 C 732.316 767.955, 725.399 761.736, 720.193 760.176 C 714.356 758.427, 705.138 758.752, 700.500 760.871 M 1.762 1249.707 C 3.006 1249.946, 4.806 1249.937, 5.762 1249.687 C 6.718 1249.437, 5.700 1249.241, 3.500 1249.252 C 1.300 1249.263, 0.518 1249.468, 1.762 1249.707 " stroke="none" fill="black" fill-rule="evenodd"/>
</svg>