<svg xmlns="http://www.w3.org/2000/svg" width="1250" height="1250" viewBox="0 0 1250 1250" version="1.1">
	<path d="M 27 624.462 L 27 1248.925 17.750 1249.255 L 8.500 1249.585 18.250 1249.792 L 28 1250 28 625 C 28 281.250, 27.775 0, 27.500 0 C 27.225 0, 27 281.008, 27 624.462 M 563.122 394.496 C 512.865 419.978, 471.199 441.428, 470.531 442.163 C 469.015 443.833, 438.289 652.884, 437.632 666 C 436.343 691.728, 425.247 721.390, 408.814 743.034 C 403.476 750.065, 401.956 752.794, 402.193 754.919 C 402.443 757.162, 409.329 763.562, 439.048 789.171 C 459.149 806.492, 479.463 823.212, 484.191 826.325 C 498.523 835.763, 506 845.826, 506 855.675 C 506 862.622, 516.825 870.327, 535.176 876.442 C 539.398 877.849, 543.939 879, 545.266 879 C 548.363 879, 550 875.525, 550 868.953 L 550 864 559.500 864 L 569 864 569 875.429 C 569 884.937, 569.291 887.148, 570.733 888.590 C 574.741 892.598, 589.663 897.822, 610.250 902.423 L 613 903.038 613 883.519 L 613 864 622 864 L 631 864 631 886.949 L 631 909.898 634.250 912.366 C 640.315 916.970, 645.381 918.345, 653.833 917.681 C 662.690 916.985, 670.361 914.888, 673.095 912.414 C 674.865 910.812, 675 909.034, 675 887.345 L 675 864 683 864 L 691 864 691 881.953 C 691 900, 691.798 905, 694.677 905 C 696.887 905, 721.005 896.019, 727.500 892.777 C 737.838 887.618, 738 887.341, 738 874.826 L 738 864 747 864 L 756 864 756.024 867.250 C 756.050 870.846, 757.499 877.832, 758.406 878.740 C 758.726 879.059, 762.028 878.165, 765.744 876.753 C 769.460 875.341, 775.156 873.944, 778.403 873.649 C 790.615 872.540, 798.749 864.963, 799.773 853.744 C 800.147 849.656, 801.026 847.544, 803.762 844.165 C 811.091 835.115, 844.251 806.899, 885 775.039 C 902.383 761.448, 904.469 759.505, 904.213 757.146 C 903.453 750.131, 896.640 738.542, 885.765 725.763 C 879.358 718.235, 879.112 717.737, 876.630 707.263 C 870.576 681.711, 858.769 600.810, 844.798 489.152 L 839.500 446.804 833.500 443.273 C 818.899 434.681, 734.921 389.962, 671 356.741 L 654.500 348.165 563.122 394.496 M 462 729.869 L 462 749.739 472.757 760.119 C 486.142 773.036, 513.503 796, 515.508 796 C 516.367 796, 517 795.090, 517 793.855 C 517 791.329, 523.832 777.499, 530.292 766.945 L 534.850 759.500 528.764 748 C 520.575 732.529, 513.055 720.480, 508.004 714.742 L 503.830 710 482.915 710 L 462 710 462 729.869 M 807.821 717.777 C 805.798 722.025, 799.858 732.596, 794.620 741.269 L 785.097 757.038 794.049 775.209 C 798.972 785.203, 803 793.970, 803 794.690 C 803 795.411, 803.580 796, 804.288 796 C 805.832 796, 840.480 766.557, 850.750 756.519 L 858 749.432 858 731.716 C 858 715.333, 857.849 713.849, 856 712 C 854.124 710.124, 852.686 710.002, 832.750 710.027 L 811.500 710.054 807.821 717.777 M 1.762 1249.707 C 3.006 1249.946, 4.806 1249.937, 5.762 1249.687 C 6.718 1249.437, 5.700 1249.241, 3.500 1249.252 C 1.300 1249.263, 0.518 1249.468, 1.762 1249.707 " stroke="none" fill="black" fill-rule="evenodd"/>
</svg>