<svg xmlns="http://www.w3.org/2000/svg" width="1250" height="1250" viewBox="0 0 1250 1250" version="1.1">
	<path d="M 27 624.462 L 27 1248.925 17.750 1249.255 L 8.500 1249.585 18.250 1249.792 L 28 1250 28 625 C 28 281.250, 27.775 0, 27.500 0 C 27.225 0, 27 281.008, 27 624.462 M 632 221.512 C 618.399 223.217, 616 223.733, 616 224.954 C 616 225.457, 626.835 254.964, 640.078 290.523 C 653.321 326.083, 663.984 355.349, 663.774 355.560 C 663.563 355.770, 655.091 359.376, 644.946 363.574 C 634.800 367.771, 626.121 371.560, 625.657 371.995 C 625.194 372.430, 643.140 403.771, 665.539 441.643 C 687.937 479.514, 706.521 510.950, 706.837 511.500 C 707.153 512.050, 706.072 511.375, 704.436 510 C 698.862 505.316, 545.921 362.746, 546.211 362.504 C 546.370 362.372, 556.850 359.894, 569.500 356.997 C 582.150 354.100, 592.868 351.400, 593.318 350.997 C 593.953 350.428, 545.231 251.039, 543.330 249.024 C 542.611 248.261, 532.316 253.945, 521.500 261.076 C 485.255 284.974, 454.759 320.005, 434.946 360.500 C 426.236 378.302, 421.279 391.755, 417.009 409.173 C 411.442 431.881, 410.518 440.281, 410.531 468 C 410.542 490.173, 410.844 495.174, 412.842 506.333 C 419.264 542.207, 432.603 575.595, 452.363 605.259 C 471.814 634.457, 499.143 660.768, 530.500 680.482 L 540.500 686.769 540.760 731.385 L 541.021 776 619.952 776 L 698.883 776 698.745 762.250 C 698.550 742.782, 701.567 734.667, 709 734.667 C 716.438 734.667, 719.353 742.933, 718.846 762.587 L 718.500 776.001 748.250 776.001 L 778 776 778 730.175 L 778 684.351 787.250 678.625 C 850.174 639.672, 891.264 576.792, 902.671 502 C 904.854 487.684, 905.123 450.242, 903.145 436 C 896.691 389.534, 878.766 347.884, 849.639 311.673 C 811.083 263.739, 754.563 231.426, 693.500 222.405 C 678.761 220.228, 646.040 219.753, 632 221.512 M 931 575.516 C 914.391 579.590, 899.601 590.801, 891.583 605.392 C 885.854 615.818, 884.531 621.170, 884.515 634 C 884.503 643.256, 884.951 646.935, 886.811 652.856 C 888.082 656.901, 888.982 660.320, 888.811 660.453 C 888.640 660.586, 867.800 668.368, 842.500 677.745 L 796.500 694.795 796.241 744.898 C 796.098 772.454, 796.200 795, 796.467 795 C 796.734 795, 830.376 782.107, 871.226 766.348 C 912.077 750.589, 946.412 737.506, 947.527 737.274 C 949.033 736.961, 950.411 738.044, 952.882 741.486 C 960.088 751.520, 974.718 760.072, 988.250 762.162 C 1005.059 764.757, 1020.886 759.359, 1033.459 746.742 C 1050.528 729.612, 1054.438 706.555, 1043.902 685.150 C 1037.582 672.311, 1022.087 659.381, 1010.079 656.927 C 1007.011 656.299, 1003.989 655.643, 1003.364 655.468 C 1002.534 655.236, 1002.597 653.581, 1003.598 649.325 C 1005.253 642.294, 1005.402 629.055, 1003.910 621.799 C 999.493 600.326, 979.417 579.950, 958.257 575.467 C 949.931 573.702, 938.307 573.723, 931 575.516 M 331.348 577.420 C 304.513 583.929, 286.245 611.588, 290.942 638.597 C 291.891 644.053, 296.376 655.278, 300.732 663.099 C 300.916 663.428, 298.063 665.453, 294.392 667.599 C 282.426 674.593, 272.245 688.700, 268.509 703.460 C 266.744 710.431, 266.541 723.655, 268.083 731.201 C 268.678 734.115, 271.024 740.325, 273.297 745 C 283.152 765.278, 304.811 778.977, 327 778.968 C 348.560 778.959, 370.277 766.187, 380.507 747.500 C 382.614 743.650, 384.405 740.395, 384.487 740.266 C 384.568 740.137, 415.429 753.442, 453.067 769.833 L 521.500 799.633 521.759 749.131 C 521.957 710.596, 521.733 698.453, 520.814 697.885 C 520.152 697.476, 491.805 684.847, 457.822 669.820 C 403.101 645.625, 396.103 642.281, 396.636 640.587 C 396.967 639.535, 397.238 634.772, 397.238 630.003 C 397.238 614.903, 392.180 602.500, 381.783 592.103 C 375.020 585.340, 363.521 578.855, 355.201 577.111 C 348.412 575.688, 337.928 575.824, 331.348 577.420 M 541.253 820.750 C 541.664 844.360, 541.981 848.479, 543.953 855.841 C 553.411 891.138, 577.106 919.464, 610.117 934.933 C 637.577 947.802, 669.974 949.468, 698.016 939.453 C 740.289 924.357, 771.353 886.407, 776.968 843 C 777.502 838.875, 777.952 826.163, 777.969 814.750 L 778 794 699.981 794 L 621.962 794 622.669 796.750 C 623.977 801.839, 623.590 825.239, 622.127 829.500 C 620.077 835.472, 617.336 838, 612.915 838 C 608.250 838, 604.569 834.062, 603.367 827.785 C 602.478 823.149, 602.628 798.748, 603.563 795.802 C 604.106 794.092, 602.520 794, 572.461 794 L 540.787 794 541.253 820.750 M 439.500 839.559 L 357.500 871.919 355.585 869.209 C 347.810 858.205, 331.988 848.191, 318.887 845.981 C 284.482 840.178, 252.655 871.604, 257.671 906.425 C 260.820 928.280, 277.814 946.720, 299.588 951.909 L 304.675 953.122 303.318 958.311 C 301.465 965.391, 301.561 982.079, 303.497 989.408 C 306.539 1000.929, 314.782 1013.799, 324.110 1021.592 C 337.228 1032.552, 358.584 1037.551, 375.376 1033.592 C 395.675 1028.806, 411.958 1014.015, 419.799 993.242 C 423.334 983.874, 423.501 968.146, 420.187 956.591 C 418.939 952.241, 418.274 948.379, 418.709 948.010 C 419.144 947.641, 447.175 936.845, 481 924.019 C 514.825 911.193, 542.612 900.618, 542.749 900.518 C 542.886 900.418, 540.566 895.648, 537.594 889.918 C 527.750 870.940, 523.930 853.786, 522.212 820.850 L 521.500 807.199 439.500 839.559 M 795.661 826.203 C 794.148 857, 788.969 877.320, 777.504 897.438 C 775.028 901.782, 773.163 905.496, 773.358 905.691 C 773.553 905.886, 804.265 919.481, 841.606 935.902 L 909.500 965.758 909.178 974.129 C 908.388 994.712, 916.910 1012.589, 932.618 1023.299 C 941.380 1029.273, 949.406 1032.091, 959.500 1032.736 C 975.518 1033.761, 990.096 1027.941, 1001.323 1016.040 C 1018.247 998.100, 1021.304 974.850, 1009.672 952.552 C 1007.935 949.224, 1006.376 946.209, 1006.208 945.852 C 1006.039 945.496, 1008.530 943.608, 1011.742 941.657 C 1023.355 934.602, 1033.024 922.056, 1037.295 908.500 C 1039.085 902.817, 1039.485 899.242, 1039.422 889.500 C 1039.335 876.124, 1037.486 869.395, 1030.877 858.397 C 1023.548 846.203, 1007.169 834.335, 993 830.952 C 985.974 829.275, 973.074 829.268, 966 830.937 C 948.947 834.961, 932.258 848.212, 924.676 863.750 C 923.535 866.087, 922.221 868, 921.756 868 C 921.291 868, 893.368 855.797, 859.705 840.883 C 826.042 825.969, 798.008 813.573, 797.407 813.336 C 796.669 813.046, 796.103 817.221, 795.661 826.203 M 1.762 1249.707 C 3.006 1249.946, 4.806 1249.937, 5.762 1249.687 C 6.718 1249.437, 5.700 1249.241, 3.500 1249.252 C 1.300 1249.263, 0.518 1249.468, 1.762 1249.707 " stroke="none" fill="black" fill-rule="evenodd"/>
</svg>