<svg xmlns="http://www.w3.org/2000/svg" width="1250" height="1250" viewBox="0 0 1250 1250" version="1.1">
	<path d="M 27 624.462 L 27 1248.925 17.750 1249.255 L 8.500 1249.585 18.250 1249.792 L 28 1250 28 625 C 28 281.250, 27.775 0, 27.500 0 C 27.225 0, 27 281.008, 27 624.462 M 626.500 323.140 C 542.562 330.398, 462.279 375.534, 410.363 444.654 C 393.248 467.440, 377.401 496.292, 367.179 523.275 C 342.146 589.353, 341.509 668.598, 365.473 735.532 C 371.099 751.245, 386.436 782.641, 395.501 797 C 437.240 863.118, 504.359 911.904, 579.782 930.945 C 634.191 944.681, 696.611 942.478, 748.490 924.991 C 839.530 894.303, 911.592 822.681, 943.307 731.361 C 965.545 667.330, 965.019 590.676, 941.910 527.875 C 920.457 469.573, 883.628 419.626, 835.100 383.019 C 813.511 366.733, 780.943 348.968, 755.494 339.596 C 716.455 325.219, 670.400 319.343, 626.500 323.140 M 629.169 354.034 C 502.231 366.284, 400.664 464.284, 381.248 593.251 C 379.082 607.638, 378.831 652.744, 380.837 667 C 389.798 730.663, 418.452 787.420, 463.631 831 C 538.684 903.395, 644.019 927.436, 741.341 894.384 C 767.948 885.348, 802.544 866.139, 826 847.378 C 837.937 837.831, 859.238 816.381, 868.787 804.293 C 901.469 762.919, 921.462 714.953, 927.485 663.465 C 929.411 647, 929.437 616.222, 927.538 599.994 C 921.739 550.415, 903.551 504.614, 873.933 465 C 846.485 428.290, 814.046 401.410, 772.500 380.949 C 745.767 367.784, 721.725 360.145, 693.568 355.871 C 678.503 353.584, 644.027 352.601, 629.169 354.034 M 638 500.046 C 580.775 507.141, 533.866 552.131, 525.445 607.996 C 517.680 659.505, 539.540 710.149, 581.499 737.861 C 622.259 764.781, 672.835 767.245, 717.980 744.510 L 724.917 741.017 723.555 737.258 C 722.349 733.928, 705.915 690.887, 703.112 683.716 L 702.023 680.931 694.936 685.909 C 683.275 694.098, 664.377 698.980, 650 697.516 C 612.623 693.711, 587 665.670, 587 628.570 C 587 608.983, 593.009 594.845, 607.438 580.478 C 621.839 566.141, 636.139 559.986, 654.980 560.015 C 666.981 560.033, 675.222 561.951, 686 567.234 C 692.999 570.664, 696.182 573.086, 704.024 580.950 C 718.789 595.754, 724.180 608.074, 724.295 627.270 C 724.331 633.193, 723.935 638.465, 723.417 638.983 C 722.825 639.575, 717.999 639.435, 710.487 638.610 C 703.894 637.886, 698.369 637.396, 698.208 637.522 C 697.830 637.818, 743.930 736.242, 744.947 737.309 C 745.371 737.754, 760.215 718.460, 777.934 694.434 C 795.653 670.408, 809.779 650.431, 809.325 650.040 C 808.871 649.649, 803.325 648.543, 797 647.583 L 785.500 645.837 785.463 629.669 C 785.437 618.147, 784.915 611.057, 783.647 605 C 777.976 577.898, 763.484 550.972, 745.530 534.177 C 728.110 517.882, 704.785 505.926, 681.752 501.488 C 671.706 499.552, 648.228 498.778, 638 500.046 M 1.762 1249.707 C 3.006 1249.946, 4.806 1249.937, 5.762 1249.687 C 6.718 1249.437, 5.700 1249.241, 3.500 1249.252 C 1.300 1249.263, 0.518 1249.468, 1.762 1249.707 " stroke="none" fill="black" fill-rule="evenodd"/>
</svg>