<svg xmlns="http://www.w3.org/2000/svg" width="1250" height="1250" viewBox="0 0 1250 1250" version="1.1">
	<path d="M 27 624.462 L 27 1248.925 17.750 1249.255 L 8.500 1249.585 18.250 1249.792 L 28 1250 28 625 C 28 281.250, 27.775 0, 27.500 0 C 27.225 0, 27 281.008, 27 624.462 M 626.500 323.140 C 542.562 330.398, 462.279 375.534, 410.363 444.654 C 393.248 467.440, 377.401 496.292, 367.179 523.275 C 342.146 589.353, 341.509 668.598, 365.473 735.532 C 371.099 751.245, 386.436 782.641, 395.501 797 C 437.240 863.118, 504.359 911.904, 579.782 930.945 C 634.191 944.681, 696.611 942.478, 748.490 924.991 C 839.530 894.303, 911.592 822.681, 943.307 731.361 C 965.545 667.330, 965.019 590.676, 941.910 527.875 C 920.457 469.573, 883.628 419.626, 835.100 383.019 C 813.511 366.733, 780.943 348.968, 755.494 339.596 C 716.455 325.219, 670.400 319.343, 626.500 323.140 M 629.169 354.034 C 502.231 366.284, 400.664 464.284, 381.248 593.251 C 379.082 607.638, 378.831 652.744, 380.837 667 C 389.798 730.663, 418.452 787.420, 463.631 831 C 538.684 903.395, 644.019 927.436, 741.341 894.384 C 767.948 885.348, 802.544 866.139, 826 847.378 C 837.937 837.831, 859.238 816.381, 868.787 804.293 C 901.469 762.919, 921.462 714.953, 927.485 663.465 C 929.411 647, 929.437 616.222, 927.538 599.994 C 921.739 550.415, 903.551 504.614, 873.933 465 C 846.485 428.290, 814.046 401.410, 772.500 380.949 C 745.767 367.784, 721.725 360.145, 693.568 355.871 C 678.503 353.584, 644.027 352.601, 629.169 354.034 M 637.787 453.041 C 609.179 460.075, 585.011 484.792, 577.399 514.800 C 575.456 522.458, 575 526.808, 575 537.670 C 575 558.801, 578.514 571.872, 588.173 586.668 C 592.737 593.659, 606.146 608, 608.119 608 C 610.172 608, 608.774 609.839, 606.250 610.459 C 601.219 611.696, 584.694 619.123, 576.652 623.761 C 547.435 640.614, 523.273 667.320, 507.533 700.161 C 495.501 725.262, 490.003 751.006, 490.001 782.250 L 490 793 658 793 L 826 793 825.982 777.250 C 825.945 745.567, 820.457 722.581, 806.345 695 C 786.316 655.856, 755.019 627.262, 716 612.460 C 711.875 610.895, 708.389 609.553, 708.254 609.478 C 708.119 609.403, 712.412 604.877, 717.794 599.421 C 725.696 591.410, 728.475 587.760, 732.228 580.461 C 739.056 567.183, 741.062 559.146, 741.714 542.450 C 742.342 526.362, 740.852 516.509, 735.926 504.176 C 725.841 478.925, 702.294 458.214, 677.303 452.613 C 667.215 450.352, 647.870 450.562, 637.787 453.041 M 644.112 479.581 C 627.026 484.176, 611.498 499.373, 604.859 518 C 602.895 523.511, 602.539 526.479, 602.521 537.500 C 602.503 548.558, 602.859 551.595, 604.900 557.828 C 611.082 576.698, 627.272 592.259, 645.093 596.460 C 657.749 599.443, 671.137 597.978, 683 592.312 C 691.365 588.316, 703.826 575.285, 708.425 565.723 C 719.786 542.102, 715.875 514.990, 698.381 496.094 C 690.550 487.636, 684.253 483.503, 674.456 480.392 C 665.623 477.587, 652.800 477.244, 644.112 479.581 M 638.520 634.050 C 588.584 641.861, 545.729 678.924, 529.162 728.630 C 526.469 736.709, 522 756.627, 522 760.551 C 522 761.809, 539.955 762, 658.475 762 L 794.950 762 794.395 758.750 C 789.627 730.839, 783.435 713.938, 771.219 695.492 C 751.695 666.013, 723.156 645.070, 691.287 636.836 C 680.777 634.121, 677.604 633.754, 662 633.453 C 652.375 633.267, 641.809 633.536, 638.520 634.050 M 1.762 1249.707 C 3.006 1249.946, 4.806 1249.937, 5.762 1249.687 C 6.718 1249.437, 5.700 1249.241, 3.500 1249.252 C 1.300 1249.263, 0.518 1249.468, 1.762 1249.707 " stroke="none" fill="black" fill-rule="evenodd"/>
</svg>