<svg xmlns="http://www.w3.org/2000/svg" width="1250" height="1250" viewBox="0 0 1250 1250" version="1.1">
	<path d="M 27 624.462 L 27 1248.925 17.750 1249.255 L 8.500 1249.585 18.250 1249.792 L 28 1250 28 625 C 28 281.250, 27.775 0, 27.500 0 C 27.225 0, 27 281.008, 27 624.462 M 626.500 323.140 C 542.562 330.398, 462.279 375.534, 410.363 444.654 C 393.248 467.440, 377.401 496.292, 367.179 523.275 C 342.146 589.353, 341.509 668.598, 365.473 735.532 C 371.099 751.245, 386.436 782.641, 395.501 797 C 437.240 863.118, 504.359 911.904, 579.782 930.945 C 634.191 944.681, 696.611 942.478, 748.490 924.991 C 839.530 894.303, 911.592 822.681, 943.307 731.361 C 965.545 667.330, 965.019 590.676, 941.910 527.875 C 920.457 469.573, 883.628 419.626, 835.100 383.019 C 813.511 366.733, 780.943 348.968, 755.494 339.596 C 716.455 325.219, 670.400 319.343, 626.500 323.140 M 629.169 354.034 C 502.231 366.284, 400.664 464.284, 381.248 593.251 C 379.082 607.638, 378.831 652.744, 380.837 667 C 389.798 730.663, 418.452 787.420, 463.631 831 C 538.684 903.395, 644.019 927.436, 741.341 894.384 C 767.948 885.348, 802.544 866.139, 826 847.378 C 837.937 837.831, 859.238 816.381, 868.787 804.293 C 901.469 762.919, 921.462 714.953, 927.485 663.465 C 929.411 647, 929.437 616.222, 927.538 599.994 C 921.739 550.415, 903.551 504.614, 873.933 465 C 846.485 428.290, 814.046 401.410, 772.500 380.949 C 745.767 367.784, 721.725 360.145, 693.568 355.871 C 678.503 353.584, 644.027 352.601, 629.169 354.034 M 620 542.075 C 558.666 548.747, 502.937 573.294, 466.579 609.652 L 456.958 619.272 460.741 622.510 C 462.821 624.291, 467.280 628.051, 470.648 630.866 L 476.773 635.983 480.282 631.700 C 485.387 625.471, 499.634 613.497, 511.031 605.858 C 541.068 585.726, 579.787 572.323, 622 567.447 C 641.447 565.200, 677.699 565.905, 696.183 568.889 C 731.589 574.605, 765.996 587.019, 792 603.460 C 801.018 609.161, 811.705 617.681, 820.695 626.335 C 826.885 632.295, 830.316 634.931, 831.195 634.404 C 831.913 633.973, 836.206 630.513, 840.735 626.716 C 847.501 621.042, 848.803 619.500, 848.037 618.069 C 846.321 614.863, 828.607 598.700, 818.850 591.438 C 785.342 566.497, 745.650 550.882, 696.661 543.367 C 684.577 541.514, 633.134 540.647, 620 542.075 M 629.500 610.076 C 625.650 610.590, 617.775 612.178, 612 613.605 C 582.248 620.955, 554.597 636.485, 532.954 658 C 523.088 667.807, 509.070 685.135, 509.022 687.585 C 509.003 688.538, 527.045 700.506, 527.411 699.783 C 527.489 699.627, 530.812 695.156, 534.795 689.846 C 547.632 672.733, 566.670 656.678, 584.939 647.560 C 593.140 643.467, 608.867 637.533, 609.592 638.259 C 609.890 638.557, 609.035 640.983, 607.692 643.651 C 601.353 656.234, 601.461 673.288, 607.964 686.500 C 622.803 716.651, 663.074 724.241, 687.021 701.399 C 698.649 690.307, 703 680.228, 703 664.379 C 703 654.856, 700.856 645.616, 697.402 640.250 C 695.562 637.391, 696.283 637.426, 705.190 640.627 C 732.857 650.568, 755.995 668.104, 773.952 692.738 C 777.104 697.061, 779.686 699.707, 780.364 699.307 C 783.008 697.747, 797.531 688.711, 797.870 688.416 C 798.073 688.239, 796.321 685.260, 793.976 681.797 C 769.928 646.277, 730.931 620.729, 687.299 611.908 C 678.813 610.192, 672.217 609.662, 656.500 609.433 C 645.500 609.273, 633.350 609.562, 629.500 610.076 M 644.500 641.504 C 639.288 643.350, 631.513 651.488, 630.101 656.576 C 627.633 665.463, 629.194 673.530, 634.603 679.850 C 644.282 691.157, 659.987 691.855, 670.400 681.442 C 677.405 674.437, 679.529 665.843, 676.472 656.872 C 672.015 643.791, 657.603 636.864, 644.500 641.504 M 1.762 1249.707 C 3.006 1249.946, 4.806 1249.937, 5.762 1249.687 C 6.718 1249.437, 5.700 1249.241, 3.500 1249.252 C 1.300 1249.263, 0.518 1249.468, 1.762 1249.707 " stroke="none" fill="black" fill-rule="evenodd"/>
</svg>