<svg xmlns="http://www.w3.org/2000/svg" width="1250" height="1250" viewBox="0 0 1250 1250" version="1.1">
	<path d="M 27 624.462 L 27 1248.925 17.750 1249.255 L 8.500 1249.585 18.250 1249.792 L 28 1250 28 625 C 28 281.250, 27.775 0, 27.500 0 C 27.225 0, 27 281.008, 27 624.462 M 626.500 323.140 C 542.562 330.398, 462.279 375.534, 410.363 444.654 C 393.248 467.440, 377.401 496.292, 367.179 523.275 C 342.146 589.353, 341.509 668.598, 365.473 735.532 C 371.099 751.245, 386.436 782.641, 395.501 797 C 437.240 863.118, 504.359 911.904, 579.782 930.945 C 634.191 944.681, 696.611 942.478, 748.490 924.991 C 839.530 894.303, 911.592 822.681, 943.307 731.361 C 965.545 667.330, 965.019 590.676, 941.910 527.875 C 920.457 469.573, 883.628 419.626, 835.100 383.019 C 813.511 366.733, 780.943 348.968, 755.494 339.596 C 716.455 325.219, 670.400 319.343, 626.500 323.140 M 629.169 354.034 C 502.231 366.284, 400.664 464.284, 381.248 593.251 C 379.082 607.638, 378.831 652.744, 380.837 667 C 389.798 730.663, 418.452 787.420, 463.631 831 C 538.684 903.395, 644.019 927.436, 741.341 894.384 C 767.948 885.348, 802.544 866.139, 826 847.378 C 837.937 837.831, 859.238 816.381, 868.787 804.293 C 901.469 762.919, 921.462 714.953, 927.485 663.465 C 929.411 647, 929.437 616.222, 927.538 599.994 C 921.739 550.415, 903.551 504.614, 873.933 465 C 846.485 428.290, 814.046 401.410, 772.500 380.949 C 745.767 367.784, 721.725 360.145, 693.568 355.871 C 678.503 353.584, 644.027 352.601, 629.169 354.034 M 630.500 396.033 C 609.138 398.439, 587.684 404.860, 567.479 414.895 C 530.813 433.106, 503.637 458.240, 483.360 492.695 C 465.803 522.526, 458.239 549.357, 457.276 585.222 C 456.520 613.357, 459.057 631.265, 467.145 654.876 C 481.545 696.911, 510.857 733.842, 548.650 757.565 L 557.500 763.120 558 803.810 C 558.442 839.811, 558.698 844.862, 560.221 847.644 C 562.446 851.709, 567.397 856.637, 571.268 858.639 C 575.636 860.897, 585.041 861.527, 590.726 859.942 C 596.862 858.231, 605.031 850.316, 606.784 844.384 C 607.615 841.573, 608 831.193, 608 811.634 L 608 783 610.250 783.046 C 611.487 783.071, 616.272 783.867, 620.883 784.815 L 629.266 786.538 628.883 797.019 C 627.987 821.550, 628.525 834.169, 630.784 841.560 C 635.185 855.959, 641.030 860.500, 655.165 860.500 C 663.203 860.500, 664.144 860.280, 668.165 857.458 C 671.191 855.335, 673.497 852.463, 675.801 847.950 C 680.464 838.815, 681.677 826.804, 680.263 803.770 C 679.680 794.271, 679.363 786.332, 679.558 786.127 C 680.263 785.386, 696.955 782.289, 697.471 782.804 C 697.762 783.095, 698 796.670, 698 812.970 L 698 842.607 700.549 847.722 C 706.121 858.903, 719.401 863.808, 732.250 859.430 C 737.959 857.485, 745.391 849.857, 746.911 844.382 C 747.595 841.917, 747.991 826.406, 747.994 801.892 L 748 763.284 754.250 759.476 C 772.283 748.487, 791.659 731.657, 804.264 716.034 C 836.226 676.418, 852.218 625.677, 848.128 576.856 C 845.847 549.629, 840.651 530.215, 829.469 507.131 C 818.153 483.769, 805.680 466.576, 787.216 448.888 C 759.529 422.363, 724.462 404.509, 687 397.864 C 673.857 395.532, 643.640 394.553, 630.500 396.033 M 560 540.591 C 550.424 543.133, 543.866 546.981, 536.423 554.423 C 526.064 564.783, 521.037 576.401, 521.012 590.040 C 520.976 609.550, 532.123 627.009, 550.396 636.063 C 558.499 640.079, 559.612 640.355, 569.405 640.791 C 578.015 641.174, 580.993 640.893, 586.695 639.161 C 614.202 630.806, 629.559 601.391, 620.501 574.408 C 617.415 565.214, 614.159 559.962, 607.541 553.500 C 595.101 541.353, 576.332 536.257, 560 540.591 M 721.275 540.539 C 702.902 545.487, 688.299 560.237, 683.489 578.703 C 679.310 594.749, 684.111 611.720, 696.565 624.921 C 706.832 635.805, 718.765 641, 733.500 641 C 746.939 641, 759.619 635.993, 768.604 627.138 C 785.607 610.380, 789.513 587.093, 778.757 566.603 C 774.695 558.864, 764.149 548.280, 757 544.766 C 745.596 539.162, 732.250 537.583, 721.275 540.539 M 645.675 659.250 C 625.860 687.788, 616 702.370, 616 703.136 C 616 703.611, 632.683 704, 653.073 704 C 684.636 704, 690.099 703.788, 689.823 702.576 C 689.402 700.719, 653.717 650.077, 652.799 650.033 C 652.413 650.015, 649.208 654.163, 645.675 659.250 M 1.762 1249.707 C 3.006 1249.946, 4.806 1249.937, 5.762 1249.687 C 6.718 1249.437, 5.700 1249.241, 3.500 1249.252 C 1.300 1249.263, 0.518 1249.468, 1.762 1249.707 " stroke="none" fill="black" fill-rule="evenodd"/>
</svg>