<svg xmlns="http://www.w3.org/2000/svg" width="1250" height="1250" viewBox="0 0 1250 1250" version="1.1">
	<path d="M 27 624.462 L 27 1248.925 17.750 1249.255 L 8.500 1249.585 18.250 1249.792 L 28 1250 28 625 C 28 281.250, 27.775 0, 27.500 0 C 27.225 0, 27 281.008, 27 624.462 M 626.500 323.140 C 542.562 330.398, 462.279 375.534, 410.363 444.654 C 393.248 467.440, 377.401 496.292, 367.179 523.275 C 342.146 589.353, 341.509 668.598, 365.473 735.532 C 371.099 751.245, 386.436 782.641, 395.501 797 C 437.240 863.118, 504.359 911.904, 579.782 930.945 C 634.191 944.681, 696.611 942.478, 748.490 924.991 C 839.530 894.303, 911.592 822.681, 943.307 731.361 C 965.545 667.330, 965.019 590.676, 941.910 527.875 C 920.457 469.573, 883.628 419.626, 835.100 383.019 C 813.511 366.733, 780.943 348.968, 755.494 339.596 C 716.455 325.219, 670.400 319.343, 626.500 323.140 M 629.169 354.034 C 502.231 366.284, 400.664 464.284, 381.248 593.251 C 379.082 607.638, 378.831 652.744, 380.837 667 C 389.798 730.663, 418.452 787.420, 463.631 831 C 538.684 903.395, 644.019 927.436, 741.341 894.384 C 767.948 885.348, 802.544 866.139, 826 847.378 C 837.937 837.831, 859.238 816.381, 868.787 804.293 C 901.469 762.919, 921.462 714.953, 927.485 663.465 C 929.411 647, 929.437 616.222, 927.538 599.994 C 921.739 550.415, 903.551 504.614, 873.933 465 C 846.485 428.290, 814.046 401.410, 772.500 380.949 C 745.767 367.784, 721.725 360.145, 693.568 355.871 C 678.503 353.584, 644.027 352.601, 629.169 354.034 M 566.334 489.413 C 530.116 496.326, 499.242 521.715, 486.092 555.399 C 480.411 569.948, 478.655 580.549, 479.281 596.500 C 480.060 616.346, 484.776 631.239, 496.158 649.792 C 500.955 657.611, 509.331 666.357, 578.244 735.500 L 654.988 812.500 730.868 736.500 C 812.014 655.225, 812.604 654.568, 821.577 635.586 C 828.956 619.976, 830.509 612.341, 830.443 592 C 830.390 575.867, 830.172 573.805, 827.653 565.600 C 818.566 535.991, 800.516 513.912, 774.229 500.249 C 736.096 480.428, 694.174 485.156, 658.861 513.260 L 655.222 516.156 646.927 510.006 C 636.093 501.973, 620.916 494.637, 608.477 491.420 C 596.121 488.225, 577.265 487.327, 566.334 489.413 M 569.364 521.427 C 527.451 530.997, 501.360 574.145, 514.088 612.841 C 520.528 632.420, 522.312 634.516, 592.127 704.500 L 654.975 767.500 716.540 706 C 750.401 672.175, 780.289 641.575, 782.958 638 C 807.058 605.720, 804.198 567.196, 775.710 540.397 C 766.820 532.034, 759.827 527.768, 748.261 523.651 C 740.324 520.826, 738.371 520.531, 727.500 520.516 C 704.430 520.485, 689.583 527.601, 667.235 549.400 L 654.970 561.364 643.235 549.873 C 626.564 533.549, 617.983 527.895, 602.500 523.031 C 593.539 520.216, 577.969 519.462, 569.364 521.427 M 1.762 1249.707 C 3.006 1249.946, 4.806 1249.937, 5.762 1249.687 C 6.718 1249.437, 5.700 1249.241, 3.500 1249.252 C 1.300 1249.263, 0.518 1249.468, 1.762 1249.707 " stroke="none" fill="black" fill-rule="evenodd"/>
</svg>