<svg xmlns="http://www.w3.org/2000/svg" width="1250" height="1250" viewBox="0 0 1250 1250" version="1.1">
	<path d="M 27 624.462 L 27 1248.925 17.750 1249.255 L 8.500 1249.585 18.250 1249.792 L 28 1250 28 625 C 28 281.250, 27.775 0, 27.500 0 C 27.225 0, 27 281.008, 27 624.462 M 566.334 489.413 C 530.116 496.326, 499.242 521.715, 486.092 555.399 C 480.411 569.948, 478.655 580.549, 479.281 596.500 C 480.060 616.346, 484.776 631.239, 496.158 649.792 C 500.955 657.611, 509.331 666.357, 578.244 735.500 L 654.988 812.500 730.868 736.500 C 812.014 655.225, 812.604 654.568, 821.577 635.586 C 828.956 619.976, 830.509 612.341, 830.443 592 C 830.390 575.867, 830.172 573.805, 827.653 565.600 C 818.566 535.991, 800.516 513.912, 774.229 500.249 C 736.096 480.428, 694.174 485.156, 658.861 513.260 L 655.222 516.156 646.927 510.006 C 636.093 501.973, 620.916 494.637, 608.477 491.420 C 596.121 488.225, 577.265 487.327, 566.334 489.413 M 569.364 521.427 C 527.451 530.997, 501.360 574.145, 514.088 612.841 C 520.528 632.420, 522.312 634.516, 592.127 704.500 L 654.975 767.500 716.540 706 C 750.401 672.175, 780.289 641.575, 782.958 638 C 807.058 605.720, 804.198 567.196, 775.710 540.397 C 766.820 532.034, 759.827 527.768, 748.261 523.651 C 740.324 520.826, 738.371 520.531, 727.500 520.516 C 704.430 520.485, 689.583 527.601, 667.235 549.400 L 654.970 561.364 643.235 549.873 C 626.564 533.549, 617.983 527.895, 602.500 523.031 C 593.539 520.216, 577.969 519.462, 569.364 521.427 M 1.762 1249.707 C 3.006 1249.946, 4.806 1249.937, 5.762 1249.687 C 6.718 1249.437, 5.700 1249.241, 3.500 1249.252 C 1.300 1249.263, 0.518 1249.468, 1.762 1249.707 " stroke="none" fill="black" fill-rule="evenodd"/>
</svg>