<svg xmlns="http://www.w3.org/2000/svg" width="1250" height="1250" viewBox="0 0 1250 1250" version="1.1">
	<path d="M 27 624.462 L 27 1248.925 17.750 1249.255 L 8.500 1249.585 18.250 1249.792 L 28 1250 28 625 C 28 281.250, 27.775 0, 27.500 0 C 27.225 0, 27 281.008, 27 624.462 M 616.487 350.315 C 540.263 385.998, 476.395 417.144, 447 432.965 C 430.970 441.593, 413.558 452.012, 409.824 455.209 L 407.147 457.500 403.552 514.500 C 397.399 612.062, 392.152 699.137, 390.376 733.147 C 388.951 760.438, 388.888 766.316, 389.992 768.981 C 392.037 773.917, 399.604 783.807, 411.513 797.106 L 422.384 809.247 457.442 808.596 C 476.724 808.238, 495.025 807.694, 498.111 807.388 C 502.895 806.913, 503.852 807.101, 504.611 808.666 C 505.100 809.674, 505.725 824, 506 840.500 L 506.500 870.500 513.580 874 C 517.474 875.925, 526.611 879.703, 533.885 882.395 C 544.137 886.190, 547.378 887.022, 548.305 886.096 C 549.177 885.225, 549.635 873.638, 550 843.243 L 550.500 801.584 558 799.298 C 562.125 798.040, 566.288 797.009, 567.250 797.006 C 568.893 797, 569 799.997, 569 845.980 L 569 894.960 574.250 897.963 C 579.244 900.820, 608.331 911, 611.500 911 C 612.819 911, 613 902.805, 613 843.182 L 613 775.363 622 772.821 L 631 770.278 631 843.484 C 631 927.090, 629.777 917.661, 641.323 923.064 C 647.182 925.806, 648.796 926.152, 653.068 925.585 C 659.457 924.738, 669.868 921.504, 672.750 919.473 L 675 917.887 675 844.412 C 675 762.321, 674.385 768.600, 682.197 770.941 C 684.423 771.608, 687.314 773.224, 688.622 774.531 L 691 776.909 691 841.732 C 691 897.856, 691.202 906.844, 692.506 908.706 L 694.013 910.856 705.190 907.862 C 718.591 904.271, 727.092 900.930, 731.627 897.471 L 734.981 894.913 735.241 845.706 L 735.500 796.500 738 796.734 C 739.375 796.862, 743.987 797.937, 748.250 799.122 L 756 801.278 756 841.592 C 756 885.525, 756.234 887.650, 760.938 886.491 C 766.503 885.120, 788.875 875.829, 794.033 872.747 L 799.500 869.480 799.764 838.150 L 800.029 806.820 813.264 807.660 C 820.544 808.122, 839.526 808.500, 855.447 808.500 L 884.395 808.500 901.240 789.135 L 918.086 769.771 917.564 761.635 C 917.277 757.161, 916.791 746.075, 916.485 737 C 915.356 703.547, 909.219 614.014, 900.445 503 L 896.849 457.500 893.674 454.817 C 880.945 444.058, 823.806 413.431, 741.500 373.249 C 676.241 341.389, 658.382 333, 655.817 333 C 654.528 333, 636.829 340.792, 616.487 350.315 M 428.422 671.642 C 431.062 682.530, 460.524 711.924, 512.571 755.595 C 521.960 763.473, 530.118 770.963, 530.699 772.239 C 531.280 773.515, 533.565 775.812, 535.776 777.344 L 539.795 780.130 556.521 774.743 L 573.247 769.356 566.373 763.632 C 554.899 754.075, 523.827 732.327, 476.881 700.992 C 452.341 684.612, 431.242 670.665, 429.996 669.998 C 427.836 668.842, 427.762 668.920, 428.422 671.642 M 848.500 689.228 C 815.399 712.133, 750.569 755.807, 741.250 761.480 C 736.484 764.381, 735 765.833, 735 767.595 C 735 769.347, 735.786 770.128, 738.250 770.823 C 740.038 771.327, 747.716 773.655, 755.314 775.996 L 769.128 780.251 771.814 777.811 C 773.291 776.469, 783.500 767.319, 794.500 757.479 C 847.281 710.260, 873.101 684.801, 877.893 675.250 C 880.611 669.833, 880.794 669.011, 879.264 669.081 C 878.294 669.125, 864.450 678.192, 848.500 689.228 M 1.762 1249.707 C 3.006 1249.946, 4.806 1249.937, 5.762 1249.687 C 6.718 1249.437, 5.700 1249.241, 3.500 1249.252 C 1.300 1249.263, 0.518 1249.468, 1.762 1249.707 " stroke="none" fill="black" fill-rule="evenodd"/>
</svg>