<svg xmlns="http://www.w3.org/2000/svg" width="1250" height="1250" viewBox="0 0 1250 1250" version="1.1">
	<path d="M 27 624.464 L 27 1248.928 17.250 1249.254 L 7.500 1249.581 17.750 1249.791 L 28 1250 28 625 C 28 281.250, 27.775 0, 27.500 0 C 27.225 0, 27 281.009, 27 624.464 M 610.943 349.654 C 526.669 389.684, 462.207 419.492, 435 431.012 L 421.500 436.729 420.804 462.614 C 420.422 476.851, 419.641 527.650, 419.070 575.500 C 418.499 623.350, 417.530 667.846, 416.916 674.379 C 416.012 683.999, 416.047 686.411, 417.104 687.064 C 418.242 687.768, 435.553 691.160, 451.866 693.876 C 459.495 695.146, 460.876 693.605, 460.384 684.375 C 458.886 656.261, 457.588 636.182, 455.458 608.153 C 452.815 573.370, 452.507 565, 453.871 565 C 454.350 565, 455.056 568.712, 455.441 573.250 C 456.032 580.227, 462.437 632.593, 464.639 648.449 C 465.174 652.299, 466.210 654.357, 469.302 657.712 C 476.822 665.870, 507.722 688.293, 564 726.429 C 582.425 738.914, 597.647 749.784, 597.827 750.583 C 598.091 751.760, 597.143 751.938, 592.827 751.524 C 589.897 751.242, 578.725 750.537, 568 749.957 C 522.770 747.510, 496.598 745.167, 489.428 742.923 C 483.168 740.965, 477.941 733.274, 474.112 720.390 C 469.272 704.103, 455.901 696.519, 428.382 694.449 C 423.368 694.071, 419.024 694.154, 418.729 694.631 C 418.133 695.597, 419.723 747.112, 420.808 761.998 L 421.500 771.497 426.500 774.221 C 433.704 778.146, 450.971 785.001, 479 795.064 L 503.500 803.859 504 838.140 L 504.500 872.422 507.852 874.680 C 511.313 877.012, 532.028 885.368, 542.364 888.602 L 548.228 890.437 550.114 888.108 C 551.873 885.936, 552 883.657, 552 854.389 C 552 832.467, 552.328 823, 553.086 823 C 553.684 823, 557.509 823.969, 561.586 825.154 L 569 827.308 569 861.077 L 569 894.847 571.501 897.819 C 574.539 901.430, 586.887 907.570, 600.847 912.411 C 606.538 914.385, 611.320 916, 611.475 916 C 613.663 916, 613.985 902.619, 614.316 798 C 614.630 698.833, 614.866 684.546, 616.305 677.447 C 618.334 667.437, 620.269 662.735, 624.493 657.550 C 639.212 639.484, 647.539 607.006, 650.054 557.863 C 651.558 528.459, 652.021 528.329, 654.882 556.510 C 655.999 567.504, 657.217 582.350, 657.590 589.500 C 658.060 598.519, 659.007 605.103, 660.682 611 C 663.722 621.701, 673.736 646.871, 684.053 669.742 L 692 687.358 692 799.132 C 692 882.185, 692.300 911.564, 693.167 913.467 C 694.057 915.420, 694.829 915.881, 696.417 915.408 C 701.497 913.895, 725.881 904.578, 729.500 902.768 C 737.583 898.725, 737 901.865, 737 862.345 L 737 827 739.250 827 C 740.487 827, 744.987 825.924, 749.250 824.608 L 757 822.217 757 853.562 C 757 887.088, 757.434 890.609, 761.417 889.392 C 762.563 889.042, 769.575 886.507, 777 883.760 C 791.658 878.336, 798.964 874.953, 800.799 872.742 C 801.634 871.735, 802.049 861.575, 802.237 837.512 L 802.500 803.697 838.419 790.848 C 858.175 783.782, 874.853 778, 875.482 778 C 877.506 778, 881.878 772.598, 883.443 768.163 C 887.140 757.683, 889.993 732.051, 889.998 709.261 C 890.001 693.338, 890.902 693.973, 871.195 696.019 C 861.041 697.072, 854.158 698.288, 851.700 699.461 C 843.238 703.501, 832.783 717.091, 825.413 733.630 C 822.284 740.654, 821.229 742.098, 818.605 742.958 C 811.875 745.165, 767.293 748.979, 730.500 750.497 C 722.800 750.814, 714.587 751.310, 712.250 751.598 C 709.054 751.993, 708 751.781, 708 750.745 C 708 749.988, 709.913 748.309, 712.250 747.014 C 723.767 740.633, 753.443 720.085, 799.153 686.839 C 814.912 675.378, 828.239 666, 828.768 666 C 830.887 666, 835.202 661.535, 837.537 656.928 C 840.641 650.802, 844.477 635.731, 846.487 621.762 C 848.006 611.206, 850.985 580.141, 850.995 574.750 C 850.998 573.237, 851.450 572, 852 572 C 853.596 572, 853.158 582.121, 849.172 637.309 C 845.042 694.494, 845.067 695.464, 850.696 694.483 C 852.238 694.215, 858.900 693.118, 865.500 692.047 C 880.106 689.675, 887.071 688.202, 888.825 687.112 C 889.925 686.429, 889.884 676.419, 888.585 628.394 C 887.243 578.764, 885.451 496.306, 884.713 450.182 L 884.500 436.863 870 431.088 C 862.025 427.911, 847.175 421.539, 837 416.928 C 806.806 403.244, 694.238 346.829, 664.443 330.448 L 658.387 327.119 610.943 349.654 M 645.265 704.791 C 644.036 707.381, 639.874 713.276, 636.015 717.891 L 629 726.282 629 822.506 C 629 934.278, 627.595 922.205, 641.103 926.473 C 645.503 927.863, 651.023 929, 653.370 929 C 659.686 929, 667.943 926.211, 671.165 922.989 L 674 920.154 674 821.501 L 674 722.848 669.282 716.674 C 666.686 713.278, 662.346 708.138, 659.637 705.250 C 655.427 700.764, 654.185 700.006, 651.105 700.041 C 647.806 700.079, 647.310 700.481, 645.265 704.791 M 1.762 1249.707 C 3.006 1249.946, 4.806 1249.937, 5.762 1249.687 C 6.718 1249.437, 5.700 1249.241, 3.500 1249.252 C 1.300 1249.263, 0.518 1249.468, 1.762 1249.707 " stroke="none" fill="black" fill-rule="evenodd"/>
</svg>