<svg xmlns="http://www.w3.org/2000/svg" width="1250" height="1250" viewBox="0 0 1250 1250" version="1.1">
	<path d="M 27 624.464 L 27 1248.928 17.250 1249.254 L 7.500 1249.581 17.750 1249.791 L 28 1250 28 625 C 28 281.250, 27.775 0, 27.500 0 C 27.225 0, 27 281.009, 27 624.464 M 629 322.624 C 546.395 329.930, 468.789 371.566, 416.348 436.713 C 387.585 472.445, 364.507 520.372, 354.838 564.455 C 350.412 584.631, 348.830 599.010, 348.284 624.022 C 347.716 650.004, 348.565 663.550, 352.072 684.500 C 365.706 765.952, 414.903 841.888, 483.803 887.831 C 524.637 915.060, 564.416 930.334, 613.572 937.659 C 630.700 940.211, 677.503 940.219, 694.500 937.672 C 773.867 925.781, 842.168 886.576, 892.537 824 C 909.687 802.695, 931.170 764.951, 940.349 740 C 965.001 672.987, 966.422 601.459, 944.416 535.261 C 910.303 432.642, 825.648 354.397, 721.789 329.488 C 700.567 324.399, 686.458 322.833, 659 322.518 C 644.975 322.358, 631.475 322.405, 629 322.624 M 632.091 354.008 C 609.468 355.904, 587.022 360.615, 565.500 367.985 C 539.803 376.785, 504.935 396.263, 482 414.630 C 471.085 423.372, 450.372 444.085, 441.630 455 C 424.253 476.699, 404.728 511.131, 395.494 536.360 C 373.570 596.259, 373.575 666.940, 395.507 726.640 C 404.650 751.527, 424.192 785.852, 441 806.549 C 485.138 860.897, 549.692 897.194, 619 906.632 C 636.250 908.981, 671.965 908.989, 689 906.648 C 738.822 899.800, 784.695 880.020, 825 848.006 C 836.998 838.476, 857.739 818.052, 866.641 807 C 898.641 767.274, 918.889 721.180, 926.690 670.305 C 928.841 656.281, 929.134 610.022, 927.162 596 C 918.931 537.482, 895.431 487.128, 855.571 442.602 C 820.244 403.139, 765.521 371.291, 713 359.628 C 689.116 354.324, 655.876 352.015, 632.091 354.008 M 757.616 491.750 C 757.331 492.712, 753.899 504.750, 749.990 518.500 C 746.081 532.250, 741.990 546.538, 740.899 550.250 L 738.915 557 590.890 557 C 450.386 557, 442.891 557.089, 443.377 558.750 C 443.658 559.712, 448.237 578.722, 453.553 600.993 C 458.869 623.265, 464.351 644.640, 465.735 648.493 C 472.104 666.228, 481.396 680.642, 495.396 694.504 C 513.256 712.188, 531.703 722.308, 557.676 728.672 C 563.675 730.142, 573.714 730.389, 640.709 730.718 L 716.917 731.093 718.420 725.796 C 726.425 697.588, 774.575 528.911, 776.096 523.750 L 778.085 517 823.542 517 L 869 517 869 503.500 L 869 490 813.567 490 C 761.639 490, 758.102 490.111, 757.616 491.750 M 477 584.904 C 477 588.957, 489.798 638.083, 492.478 644.319 C 504.320 671.868, 526.429 691.590, 555.718 700.731 L 564.500 703.472 630.696 703.776 L 696.891 704.080 698.879 697.290 C 703.526 681.416, 729.919 589.262, 730.539 586.750 L 731.217 584 604.108 584 C 529.029 584, 477 584.370, 477 584.904 M 593 614 L 593 631 576 631 L 559 631 559 644.500 L 559 658 576 658 L 593 658 593 675.029 L 593 692.058 606.250 691.779 L 619.500 691.500 619.774 674.774 L 620.048 658.048 636.774 657.774 L 653.500 657.500 653.779 644.250 L 654.058 631 637.029 631 L 620 631 620 614 L 620 597 606.500 597 L 593 597 593 614 M 544.326 746.060 C 536.542 747.570, 529.019 753.194, 525.386 760.221 C 523.141 764.562, 522.433 774.902, 523.997 780.491 C 526.869 790.747, 538.225 798.980, 549.500 798.980 C 572.741 798.980, 584.893 770.535, 568.709 754.016 C 562.022 747.190, 553.251 744.328, 544.326 746.060 M 697.297 746.028 C 691.979 747.105, 689.796 748.286, 684.839 752.764 C 671.405 764.901, 673.795 786.349, 689.613 795.619 C 695.433 799.030, 704.863 799.916, 711.450 797.672 C 725.013 793.051, 732.614 778.505, 728.630 764.800 C 724.854 751.811, 710.677 743.317, 697.297 746.028 M 1.762 1249.707 C 3.006 1249.946, 4.806 1249.937, 5.762 1249.687 C 6.718 1249.437, 5.700 1249.241, 3.500 1249.252 C 1.300 1249.263, 0.518 1249.468, 1.762 1249.707 " stroke="none" fill="black" fill-rule="evenodd"/>
</svg>